<?xml version="1.0" encoding="utf-8"?>
<!-- Generator: Adobe Illustrator 23.0.4, SVG Export Plug-In . SVG Version: 6.00 Build 0)  -->
<svg version="1.1" id="레이어_1" xmlns="http://www.w3.org/2000/svg" xmlns:xlink="http://www.w3.org/1999/xlink" x="0px"
	 y="0px" viewBox="0 0 38 38" style="enable-background:new 0 0 38 38;" xml:space="preserve">
<style type="text/css">
	.st0{fill:none;stroke:#858585;stroke-miterlimit:10;}
	.st1{fill:none;stroke:#858585;}
	.st2{fill:none;stroke:#858585;stroke-width:2;}
</style>
<g id="그룹_617" transform="translate(-646.193 -820.201)">
	<g id="사각형_272" transform="translate(646.193 820.201)">
		<path class="st0" d="M3,0h32c1.7,0,3,1.3,3,3v32c0,1.7-1.3,3-3,3H3c-1.7,0-3-1.3-3-3V3C0,1.3,1.3,0,3,0z"/>
		<path class="st1" d="M3,0.5h32c1.4,0,2.5,1.1,2.5,2.5v32c0,1.4-1.1,2.5-2.5,2.5H3c-1.4,0-2.5-1.1-2.5-2.5V3C0.5,1.6,1.6,0.5,3,0.5
			z"/>
	</g>
	<path id="패스_236" class="st2" d="M669.2,828.9l-9.8,10.4l9.8,10.4"/>
</g>
</svg>
